<?xml version="1.0" standalone="no"?>
<!DOCTYPE svg PUBLIC "-//W3C//DTD SVG 20010904//EN"
 "http://www.w3.org/TR/2001/REC-SVG-20010904/DTD/svg10.dtd">
<svg version="1.0" xmlns="http://www.w3.org/2000/svg"
 width="512.000000pt" height="512.000000pt" viewBox="0 0 512.000000 512.000000"
 preserveAspectRatio="xMidYMid meet">
<style>
path { fill: #000000; }
@media (prefers-color-scheme: dark) {
    path { fill: #ffffff; }
}
</style>
<g transform="translate(0.000000,512.000000) scale(0.100000,-0.100000)"
fill="#000000" stroke="none">
<path d="M2103 5106 c-101 -33 -186 -106 -229 -200 -12 -28 -43 -142 -68 -254
-25 -112 -48 -207 -51 -212 -3 -5 -43 -27 -88 -49 -97 -47 -202 -109 -273
-162 l-51 -38 -144 45 c-305 96 -309 96 -385 91 -90 -6 -172 -44 -234 -107
-38 -38 -181 -271 -300 -489 -14 -25 -42 -74 -63 -107 -42 -70 -86 -161 -93
-196 -7 -37 -7 -123 1 -159 18 -85 61 -143 197 -270 73 -68 151 -142 174 -164
l41 -40 -7 -60 c-8 -68 -5 -388 4 -403 3 -5 -38 -49 -92 -98 -53 -49 -138
-129 -187 -179 -79 -79 -93 -98 -114 -158 -46 -133 -25 -234 88 -422 20 -32
108 -184 231 -400 93 -162 150 -222 246 -258 111 -41 175 -34 427 46 l208 66
69 -49 c76 -54 216 -134 296 -170 l51 -22 16 -72 c9 -39 26 -114 37 -166 12
-52 24 -103 26 -114 29 -150 100 -247 224 -305 l55 -26 445 0 445 0 57 27 c31
14 76 44 100 67 82 75 100 122 179 491 l21 95 86 43 c109 53 170 88 261 151
40 27 78 48 84 46 7 -2 93 -29 192 -60 99 -31 193 -60 208 -65 55 -18 179 -4
243 26 99 47 133 92 336 444 102 179 193 340 202 358 24 47 34 149 21 213 -22
111 -65 163 -321 396 l-90 82 6 58 c8 69 5 397 -4 411 -3 5 33 45 81 88 297
271 333 320 334 468 1 79 -23 147 -97 276 -36 63 -77 133 -89 155 -105 184
-231 396 -252 423 -59 77 -188 135 -291 131 -60 -3 -85 -9 -335 -88 l-158 -50
-67 47 c-96 68 -157 104 -260 154 l-90 43 -12 55 c-31 146 -63 282 -81 349
-33 119 -99 199 -209 250 l-55 26 -430 2 c-337 2 -439 -1 -472 -11z m840 -318
c14 -11 33 -85 92 -348 48 -215 55 -232 116 -262 19 -10 82 -40 142 -67 106
-49 245 -134 322 -196 77 -63 112 -72 188 -51 28 7 146 44 260 80 115 36 216
66 225 66 22 0 30 -12 226 -352 91 -159 166 -299 166 -312 0 -23 -7 -30 -243
-246 -116 -105 -167 -161 -174 -191 -5 -16 -3 -73 3 -127 11 -98 10 -406 -1
-452 -21 -87 2 -159 71 -218 35 -30 184 -166 292 -267 29 -27 54 -59 54 -70 1
-21 -354 -643 -375 -657 -17 -12 -46 -6 -177 36 -311 101 -368 116 -407 110
-25 -4 -67 -27 -123 -69 -147 -109 -258 -172 -414 -235 -64 -26 -109 -75 -120
-132 -10 -52 -12 -62 -60 -278 -32 -140 -51 -209 -63 -218 -24 -18 -742 -18
-766 0 -9 8 -23 45 -32 88 -9 41 -18 82 -20 90 -2 8 -20 91 -41 184 -23 100
-46 181 -59 200 -21 32 -43 44 -205 119 -105 48 -213 115 -305 187 -88 70
-123 78 -216 51 -35 -11 -151 -47 -257 -80 -106 -34 -198 -61 -206 -61 -23 0
-51 43 -196 295 -78 138 -156 271 -171 298 -44 73 -41 82 63 178 51 46 122
111 158 145 36 34 82 76 103 94 67 58 77 96 62 225 -11 91 -12 331 -1 420 18
150 11 170 -96 266 -40 37 -89 82 -109 100 -20 19 -75 69 -122 113 -61 55 -87
85 -87 101 0 13 15 49 33 82 41 70 94 162 106 183 5 8 58 100 117 203 76 132
115 189 130 193 19 5 68 -8 214 -56 104 -35 245 -78 288 -90 63 -16 107 0 212
79 104 78 236 154 359 205 127 54 137 66 170 221 62 287 94 411 109 423 12 9
104 12 382 12 278 0 370 -3 383 -12z"/>
<path d="M2715 3413 c-55 -10 -67 -16 -100 -44 -37 -33 -52 -71 -80 -203 -8
-39 -24 -107 -34 -151 -10 -44 -55 -240 -100 -435 -45 -195 -93 -400 -106
-455 -13 -55 -26 -111 -28 -125 -3 -14 -11 -47 -17 -73 -31 -118 38 -217 151
-217 50 0 110 32 132 70 14 23 51 161 71 260 2 14 16 75 31 135 15 61 29 120
31 132 2 12 15 69 29 125 13 57 26 114 29 128 5 23 24 105 90 390 31 130 28
117 52 227 19 93 13 137 -29 184 -26 29 -92 57 -122 52z"/>
<path d="M1791 3180 c-19 -12 -39 -27 -46 -33 -13 -13 -148 -135 -181 -164
-50 -43 -262 -235 -336 -304 -35 -33 -56 -83 -53 -130 2 -39 35 -101 64 -122
15 -10 99 -85 221 -197 9 -8 36 -33 60 -54 25 -22 81 -72 125 -112 124 -113
128 -116 162 -130 92 -40 199 19 217 118 8 46 -13 110 -47 142 -30 29 -140
129 -262 239 -27 24 -70 63 -95 86 l-45 41 40 37 c22 21 99 90 170 154 236
212 244 222 240 300 -6 110 -142 185 -234 129z"/>
<path d="M3178 3180 c-98 -53 -112 -180 -29 -260 47 -44 189 -173 304 -275 48
-42 87 -81 87 -85 0 -4 -35 -38 -77 -76 -43 -38 -83 -73 -89 -79 -6 -5 -48
-44 -94 -85 -143 -128 -168 -156 -180 -199 -26 -98 37 -186 141 -198 51 -6 94
15 174 87 86 77 210 188 290 260 184 165 224 205 230 233 21 93 6 135 -73 205
-31 27 -71 63 -87 78 -17 16 -71 65 -120 109 -50 44 -108 96 -130 116 -200
181 -197 179 -262 185 -35 3 -58 -1 -85 -16z"/>
</g>
</svg>
